<mxfile host="Electron" agent="Mozilla/5.0 (Windows NT 10.0; Win64; x64) AppleWebKit/537.36 (KHTML, like Gecko) draw.io/26.0.16 Chrome/132.0.6834.196 Electron/34.2.0 Safari/537.36" version="26.0.16">
  <diagram id="C5RBs43oDa-KdzZeNtuy" name="Page-1">
    <mxGraphModel dx="744" dy="876" grid="1" gridSize="10" guides="1" tooltips="1" connect="1" arrows="1" fold="1" page="1" pageScale="1" pageWidth="827" pageHeight="1169" math="0" shadow="0">
      <root>
        <mxCell id="WIyWlLk6GJQsqaUBKTNV-0" />
        <mxCell id="WIyWlLk6GJQsqaUBKTNV-1" parent="WIyWlLk6GJQsqaUBKTNV-0" />
        <mxCell id="EmTTqNfjeitcgYpymJA3-23" style="edgeStyle=orthogonalEdgeStyle;rounded=0;orthogonalLoop=1;jettySize=auto;html=1;" edge="1" parent="WIyWlLk6GJQsqaUBKTNV-1" source="WIyWlLk6GJQsqaUBKTNV-3" target="EmTTqNfjeitcgYpymJA3-1">
          <mxGeometry relative="1" as="geometry" />
        </mxCell>
        <mxCell id="WIyWlLk6GJQsqaUBKTNV-3" value="Start" style="rounded=1;whiteSpace=wrap;html=1;fontSize=12;glass=0;strokeWidth=1;shadow=0;" parent="WIyWlLk6GJQsqaUBKTNV-1" vertex="1">
          <mxGeometry x="354" y="20" width="120" height="40" as="geometry" />
        </mxCell>
        <mxCell id="WIyWlLk6GJQsqaUBKTNV-11" value="End" style="rounded=1;whiteSpace=wrap;html=1;fontSize=12;glass=0;strokeWidth=1;shadow=0;" parent="WIyWlLk6GJQsqaUBKTNV-1" vertex="1">
          <mxGeometry x="354" y="680" width="120" height="40" as="geometry" />
        </mxCell>
        <mxCell id="EmTTqNfjeitcgYpymJA3-15" style="edgeStyle=orthogonalEdgeStyle;rounded=0;orthogonalLoop=1;jettySize=auto;html=1;" edge="1" parent="WIyWlLk6GJQsqaUBKTNV-1" source="EmTTqNfjeitcgYpymJA3-0" target="EmTTqNfjeitcgYpymJA3-11">
          <mxGeometry relative="1" as="geometry" />
        </mxCell>
        <mxCell id="EmTTqNfjeitcgYpymJA3-0" value="Open ZAP" style="rounded=0;whiteSpace=wrap;html=1;" vertex="1" parent="WIyWlLk6GJQsqaUBKTNV-1">
          <mxGeometry x="354" y="220" width="120" height="60" as="geometry" />
        </mxCell>
        <mxCell id="EmTTqNfjeitcgYpymJA3-3" style="edgeStyle=orthogonalEdgeStyle;rounded=0;orthogonalLoop=1;jettySize=auto;html=1;" edge="1" parent="WIyWlLk6GJQsqaUBKTNV-1" source="EmTTqNfjeitcgYpymJA3-1" target="EmTTqNfjeitcgYpymJA3-0">
          <mxGeometry relative="1" as="geometry" />
        </mxCell>
        <mxCell id="EmTTqNfjeitcgYpymJA3-5" style="edgeStyle=orthogonalEdgeStyle;rounded=0;orthogonalLoop=1;jettySize=auto;html=1;" edge="1" parent="WIyWlLk6GJQsqaUBKTNV-1" source="EmTTqNfjeitcgYpymJA3-1" target="EmTTqNfjeitcgYpymJA3-4">
          <mxGeometry relative="1" as="geometry" />
        </mxCell>
        <mxCell id="EmTTqNfjeitcgYpymJA3-1" value="Is the user an admin?" style="rhombus;whiteSpace=wrap;html=1;" vertex="1" parent="WIyWlLk6GJQsqaUBKTNV-1">
          <mxGeometry x="359" y="90" width="110" height="100" as="geometry" />
        </mxCell>
        <mxCell id="EmTTqNfjeitcgYpymJA3-35" style="edgeStyle=orthogonalEdgeStyle;rounded=0;orthogonalLoop=1;jettySize=auto;html=1;" edge="1" parent="WIyWlLk6GJQsqaUBKTNV-1" source="EmTTqNfjeitcgYpymJA3-2" target="WIyWlLk6GJQsqaUBKTNV-11">
          <mxGeometry relative="1" as="geometry">
            <mxPoint x="730" y="710" as="targetPoint" />
            <Array as="points">
              <mxPoint x="730" y="700" />
            </Array>
          </mxGeometry>
        </mxCell>
        <mxCell id="EmTTqNfjeitcgYpymJA3-2" value="Add/Edit Tips and Advice" style="shape=parallelogram;perimeter=parallelogramPerimeter;whiteSpace=wrap;html=1;fixedSize=1;" vertex="1" parent="WIyWlLk6GJQsqaUBKTNV-1">
          <mxGeometry x="670" y="220" width="120" height="60" as="geometry" />
        </mxCell>
        <mxCell id="EmTTqNfjeitcgYpymJA3-9" style="edgeStyle=orthogonalEdgeStyle;rounded=0;orthogonalLoop=1;jettySize=auto;html=1;" edge="1" parent="WIyWlLk6GJQsqaUBKTNV-1" source="EmTTqNfjeitcgYpymJA3-4" target="EmTTqNfjeitcgYpymJA3-8">
          <mxGeometry relative="1" as="geometry" />
        </mxCell>
        <mxCell id="EmTTqNfjeitcgYpymJA3-4" value="Open ZAP Dev Build" style="rounded=0;whiteSpace=wrap;html=1;" vertex="1" parent="WIyWlLk6GJQsqaUBKTNV-1">
          <mxGeometry x="510" y="110" width="120" height="60" as="geometry" />
        </mxCell>
        <mxCell id="EmTTqNfjeitcgYpymJA3-6" value="No" style="text;html=1;align=center;verticalAlign=middle;whiteSpace=wrap;rounded=0;" vertex="1" parent="WIyWlLk6GJQsqaUBKTNV-1">
          <mxGeometry x="414" y="190" width="60" height="30" as="geometry" />
        </mxCell>
        <mxCell id="EmTTqNfjeitcgYpymJA3-7" value="Yes" style="text;html=1;align=center;verticalAlign=middle;whiteSpace=wrap;rounded=0;" vertex="1" parent="WIyWlLk6GJQsqaUBKTNV-1">
          <mxGeometry x="460" y="110" width="60" height="30" as="geometry" />
        </mxCell>
        <mxCell id="EmTTqNfjeitcgYpymJA3-10" style="edgeStyle=orthogonalEdgeStyle;rounded=0;orthogonalLoop=1;jettySize=auto;html=1;" edge="1" parent="WIyWlLk6GJQsqaUBKTNV-1" source="EmTTqNfjeitcgYpymJA3-8" target="EmTTqNfjeitcgYpymJA3-2">
          <mxGeometry relative="1" as="geometry" />
        </mxCell>
        <mxCell id="EmTTqNfjeitcgYpymJA3-8" value="Open collection of Tips and Advice" style="rounded=0;whiteSpace=wrap;html=1;" vertex="1" parent="WIyWlLk6GJQsqaUBKTNV-1">
          <mxGeometry x="670" y="110" width="120" height="60" as="geometry" />
        </mxCell>
        <mxCell id="EmTTqNfjeitcgYpymJA3-16" style="edgeStyle=orthogonalEdgeStyle;rounded=0;orthogonalLoop=1;jettySize=auto;html=1;" edge="1" parent="WIyWlLk6GJQsqaUBKTNV-1" source="EmTTqNfjeitcgYpymJA3-11" target="EmTTqNfjeitcgYpymJA3-13">
          <mxGeometry relative="1" as="geometry" />
        </mxCell>
        <mxCell id="EmTTqNfjeitcgYpymJA3-11" value="Be presented with a popup Tip of the Day from the collection" style="rounded=0;whiteSpace=wrap;html=1;" vertex="1" parent="WIyWlLk6GJQsqaUBKTNV-1">
          <mxGeometry x="354" y="320" width="120" height="60" as="geometry" />
        </mxCell>
        <mxCell id="EmTTqNfjeitcgYpymJA3-18" style="edgeStyle=orthogonalEdgeStyle;rounded=0;orthogonalLoop=1;jettySize=auto;html=1;" edge="1" parent="WIyWlLk6GJQsqaUBKTNV-1" source="EmTTqNfjeitcgYpymJA3-13" target="EmTTqNfjeitcgYpymJA3-17">
          <mxGeometry relative="1" as="geometry" />
        </mxCell>
        <mxCell id="EmTTqNfjeitcgYpymJA3-26" style="edgeStyle=orthogonalEdgeStyle;rounded=0;orthogonalLoop=1;jettySize=auto;html=1;" edge="1" parent="WIyWlLk6GJQsqaUBKTNV-1" source="EmTTqNfjeitcgYpymJA3-13" target="EmTTqNfjeitcgYpymJA3-22">
          <mxGeometry relative="1" as="geometry" />
        </mxCell>
        <mxCell id="EmTTqNfjeitcgYpymJA3-13" value="Does the user&amp;nbsp;&lt;div&gt;want to read more about the Tip?&lt;/div&gt;" style="rhombus;whiteSpace=wrap;html=1;" vertex="1" parent="WIyWlLk6GJQsqaUBKTNV-1">
          <mxGeometry x="349.5" y="420" width="129" height="117.27" as="geometry" />
        </mxCell>
        <mxCell id="EmTTqNfjeitcgYpymJA3-14" style="edgeStyle=orthogonalEdgeStyle;rounded=0;orthogonalLoop=1;jettySize=auto;html=1;exitX=0.5;exitY=1;exitDx=0;exitDy=0;" edge="1" parent="WIyWlLk6GJQsqaUBKTNV-1" source="WIyWlLk6GJQsqaUBKTNV-11" target="WIyWlLk6GJQsqaUBKTNV-11">
          <mxGeometry relative="1" as="geometry" />
        </mxCell>
        <mxCell id="EmTTqNfjeitcgYpymJA3-21" style="edgeStyle=orthogonalEdgeStyle;rounded=0;orthogonalLoop=1;jettySize=auto;html=1;" edge="1" parent="WIyWlLk6GJQsqaUBKTNV-1" source="EmTTqNfjeitcgYpymJA3-17" target="WIyWlLk6GJQsqaUBKTNV-11">
          <mxGeometry relative="1" as="geometry" />
        </mxCell>
        <mxCell id="EmTTqNfjeitcgYpymJA3-17" value="The user carries out Penetration Testing as normal" style="rounded=0;whiteSpace=wrap;html=1;" vertex="1" parent="WIyWlLk6GJQsqaUBKTNV-1">
          <mxGeometry x="354" y="580" width="120" height="60" as="geometry" />
        </mxCell>
        <mxCell id="EmTTqNfjeitcgYpymJA3-20" value="No" style="text;html=1;align=center;verticalAlign=middle;whiteSpace=wrap;rounded=0;" vertex="1" parent="WIyWlLk6GJQsqaUBKTNV-1">
          <mxGeometry x="414" y="540" width="60" height="30" as="geometry" />
        </mxCell>
        <mxCell id="EmTTqNfjeitcgYpymJA3-27" style="edgeStyle=orthogonalEdgeStyle;rounded=0;orthogonalLoop=1;jettySize=auto;html=1;" edge="1" parent="WIyWlLk6GJQsqaUBKTNV-1" source="EmTTqNfjeitcgYpymJA3-22" target="EmTTqNfjeitcgYpymJA3-24">
          <mxGeometry relative="1" as="geometry" />
        </mxCell>
        <mxCell id="EmTTqNfjeitcgYpymJA3-22" value="The user can read more about the Tip in the popup window by going through pages" style="rounded=0;whiteSpace=wrap;html=1;" vertex="1" parent="WIyWlLk6GJQsqaUBKTNV-1">
          <mxGeometry x="190" y="448.63" width="120" height="60" as="geometry" />
        </mxCell>
        <mxCell id="EmTTqNfjeitcgYpymJA3-28" style="edgeStyle=orthogonalEdgeStyle;rounded=0;orthogonalLoop=1;jettySize=auto;html=1;" edge="1" parent="WIyWlLk6GJQsqaUBKTNV-1" source="EmTTqNfjeitcgYpymJA3-24" target="EmTTqNfjeitcgYpymJA3-25">
          <mxGeometry relative="1" as="geometry" />
        </mxCell>
        <mxCell id="EmTTqNfjeitcgYpymJA3-24" value="At the final page, the user can choose to close the window or read more" style="rounded=0;whiteSpace=wrap;html=1;" vertex="1" parent="WIyWlLk6GJQsqaUBKTNV-1">
          <mxGeometry x="20" y="448.63" width="120" height="60" as="geometry" />
        </mxCell>
        <mxCell id="EmTTqNfjeitcgYpymJA3-29" style="edgeStyle=orthogonalEdgeStyle;rounded=0;orthogonalLoop=1;jettySize=auto;html=1;" edge="1" parent="WIyWlLk6GJQsqaUBKTNV-1" source="EmTTqNfjeitcgYpymJA3-25" target="WIyWlLk6GJQsqaUBKTNV-11">
          <mxGeometry relative="1" as="geometry">
            <mxPoint x="320" y="680" as="targetPoint" />
            <Array as="points">
              <mxPoint x="80" y="700" />
            </Array>
          </mxGeometry>
        </mxCell>
        <mxCell id="EmTTqNfjeitcgYpymJA3-32" style="edgeStyle=orthogonalEdgeStyle;rounded=0;orthogonalLoop=1;jettySize=auto;html=1;" edge="1" parent="WIyWlLk6GJQsqaUBKTNV-1" source="EmTTqNfjeitcgYpymJA3-25" target="EmTTqNfjeitcgYpymJA3-30">
          <mxGeometry relative="1" as="geometry" />
        </mxCell>
        <mxCell id="EmTTqNfjeitcgYpymJA3-25" value="Does the user&amp;nbsp;&lt;div&gt;&lt;span style=&quot;background-color: transparent; color: light-dark(rgb(0, 0, 0), rgb(255, 255, 255));&quot;&gt;&amp;nbsp;want to read more tips?&lt;/span&gt;&lt;/div&gt;" style="rhombus;whiteSpace=wrap;html=1;" vertex="1" parent="WIyWlLk6GJQsqaUBKTNV-1">
          <mxGeometry x="15.5" y="551.36" width="129" height="117.27" as="geometry" />
        </mxCell>
        <mxCell id="EmTTqNfjeitcgYpymJA3-31" style="edgeStyle=orthogonalEdgeStyle;rounded=0;orthogonalLoop=1;jettySize=auto;html=1;" edge="1" parent="WIyWlLk6GJQsqaUBKTNV-1" source="EmTTqNfjeitcgYpymJA3-30" target="EmTTqNfjeitcgYpymJA3-17">
          <mxGeometry relative="1" as="geometry" />
        </mxCell>
        <mxCell id="EmTTqNfjeitcgYpymJA3-30" value="The user can read more tips and advice in the total collection of information found in Tools &amp;gt; View ZAP Advice" style="rounded=0;whiteSpace=wrap;html=1;" vertex="1" parent="WIyWlLk6GJQsqaUBKTNV-1">
          <mxGeometry x="179.17999999999998" y="567.5" width="141.65" height="84.99" as="geometry" />
        </mxCell>
        <mxCell id="EmTTqNfjeitcgYpymJA3-33" value="No" style="text;html=1;align=center;verticalAlign=middle;whiteSpace=wrap;rounded=0;" vertex="1" parent="WIyWlLk6GJQsqaUBKTNV-1">
          <mxGeometry x="190" y="700" width="60" height="30" as="geometry" />
        </mxCell>
        <mxCell id="EmTTqNfjeitcgYpymJA3-34" value="Yes" style="text;html=1;align=center;verticalAlign=middle;whiteSpace=wrap;rounded=0;" vertex="1" parent="WIyWlLk6GJQsqaUBKTNV-1">
          <mxGeometry x="130" y="580" width="60" height="30" as="geometry" />
        </mxCell>
        <mxCell id="EmTTqNfjeitcgYpymJA3-36" value="Yes" style="text;html=1;align=center;verticalAlign=middle;whiteSpace=wrap;rounded=0;" vertex="1" parent="WIyWlLk6GJQsqaUBKTNV-1">
          <mxGeometry x="310" y="450" width="60" height="30" as="geometry" />
        </mxCell>
      </root>
    </mxGraphModel>
  </diagram>
</mxfile>
